<svg data-v-423bf9ae="" xmlns="http://www.w3.org/2000/svg" viewBox="0 0 334.1284761267521 60" class="font"><!----><!----><!----><g data-v-423bf9ae="" id="4171b2e4-225e-4326-aa92-0f0cbebb986d" fill="black" transform="matrix(6.880734486768971,0,0,6.880734486768971,-3.4403638974587807,-35.43578373989534)"><path d="M6.29 5.67L6.29 5.15L9.49 5.15L9.49 5.67L8.33 5.95L8.33 13.72L7.25 13.86L2.51 7.03L2.51 12.91L3.70 13.20L3.70 13.72L0.50 13.72L0.50 13.20L1.64 12.91L1.64 5.95L0.50 5.67L0.50 5.15L2.83 5.15L7.48 11.76L7.48 5.95L6.29 5.67ZM10.32 5.15L16.53 5.15L16.53 7.06L15.90 7.06L15.61 5.95L13.01 5.95L13.01 9.31L14.87 9.31L15.13 8.39L15.72 8.39L15.72 10.96L15.13 10.96L14.83 10.00L13.01 10.00L13.01 12.88L14.56 13.17L14.56 13.72L10.32 13.72L10.32 13.20L11.61 12.91L11.61 5.96L10.32 5.67L10.32 5.15ZM17.08 7.20L16.97 5.15L24.02 5.15L23.94 7.20L23.31 7.20L23.04 5.95L21.20 5.95L21.20 12.91L22.58 13.20L22.58 13.72L18.41 13.72L18.41 13.20L19.81 12.91L19.81 5.95L17.93 5.95L17.67 7.20L17.08 7.20ZM27.83 13.87L27.83 13.87Q26.18 13.87 25.40 12.94L25.40 12.94L25.40 12.94Q24.61 12.01 24.61 10.32L24.61 10.32L24.61 10.32Q24.61 8.51 25.42 7.61L25.42 7.61L25.42 7.61Q26.22 6.71 27.68 6.71L27.68 6.71L27.68 6.71Q29.06 6.71 29.71 7.35L29.71 7.35L29.71 7.35Q30.37 7.99 30.37 9.37L30.37 9.37L30.37 9.37Q30.37 9.73 30.32 10.14L30.32 10.14L26.12 10.14L26.12 10.54L26.12 10.54Q26.12 11.77 26.65 12.40L26.65 12.40L26.65 12.40Q27.17 13.03 28.14 13.03L28.14 13.03L28.14 13.03Q29.04 13.03 30.18 12.71L30.18 12.71L30.28 13.20L30.28 13.20Q29.72 13.55 29.15 13.71L29.15 13.71L29.15 13.71Q28.57 13.87 27.83 13.87L27.83 13.87ZM26.15 9.56L28.91 9.41L28.91 9.10L28.91 9.10Q28.91 8.29 28.64 7.89L28.64 7.89L28.64 7.89Q28.38 7.49 27.76 7.49L27.76 7.49L27.76 7.49Q26.92 7.49 26.56 7.97L26.56 7.97L26.56 7.97Q26.21 8.46 26.15 9.56L26.15 9.56ZM34.02 7.56L34.02 7.56Q33.36 7.56 32.75 7.76L32.75 7.76L32.42 8.95L31.88 8.95L31.64 7.22L31.64 7.22Q33.04 6.71 34.34 6.71L34.34 6.71L34.34 6.71Q35.41 6.71 35.97 7.06L35.97 7.06L35.97 7.06Q36.53 7.42 36.53 8.30L36.53 8.30L36.53 12.80L37.73 13.09L37.73 13.55L37.73 13.55Q36.95 13.78 36.23 13.78L36.23 13.78L36.23 13.78Q35.84 13.78 35.55 13.58L35.55 13.58L35.55 13.58Q35.25 13.38 35.17 13.02L35.17 13.02L35.17 13.02Q34.59 13.44 34.03 13.66L34.03 13.66L34.03 13.66Q33.47 13.87 32.86 13.87L32.86 13.87L32.86 13.87Q32.13 13.87 31.72 13.37L31.72 13.37L31.72 13.37Q31.30 12.87 31.30 12.15L31.30 12.15L31.30 12.15Q31.30 11.48 31.69 10.92L31.69 10.92L31.69 10.92Q32.07 10.36 33.08 10.18L33.08 10.18L35.14 9.80L35.14 8.68L35.14 8.68Q35.14 8.11 34.89 7.83L34.89 7.83L34.89 7.83Q34.65 7.56 34.02 7.56L34.02 7.56ZM33.87 10.70L33.87 10.70Q32.72 10.92 32.72 11.94L32.72 11.94L32.72 11.94Q32.72 12.92 33.66 12.92L33.66 12.92L33.66 12.92Q34.26 12.92 35.14 12.45L35.14 12.45L35.14 10.47L33.87 10.70ZM42.22 7.70L42.22 7.70Q41.51 7.70 40.89 7.95L40.89 7.95L40.89 12.91L42.49 13.22L42.49 13.72L38.30 13.72L38.30 13.23L39.51 12.89L39.51 7.83L38.30 7.67L38.30 7.24L40.33 6.71L40.87 6.71L40.87 7.35L40.87 7.35Q41.34 7.04 41.92 6.86L41.92 6.86L41.92 6.86Q42.50 6.68 43.01 6.68L43.01 6.68L43.01 6.68Q43.27 6.68 43.39 6.69L43.39 6.69L43.15 8.86L42.52 8.86L42.22 7.70ZM46.79 7.49L46.79 7.49Q46.16 7.49 45.81 7.74L45.81 7.74L45.81 7.74Q45.46 7.98 45.46 8.41L45.46 8.41L45.46 8.41Q45.46 8.82 45.65 9.04L45.65 9.04L45.65 9.04Q45.85 9.25 46.35 9.44L46.35 9.44L47.54 9.84L47.54 9.84Q48.40 10.14 48.73 10.56L48.73 10.56L48.73 10.56Q49.06 10.98 49.06 11.72L49.06 11.72L49.06 11.72Q49.06 12.71 48.36 13.29L48.36 13.29L48.36 13.29Q47.67 13.86 46.37 13.86L46.37 13.86L46.37 13.86Q45.86 13.86 45.27 13.76L45.27 13.76L45.27 13.76Q44.67 13.66 44.21 13.50L44.21 13.50L44.41 11.77L44.95 11.77L45.25 12.94L45.25 12.94Q45.81 13.10 46.40 13.10L46.40 13.10L46.40 13.10Q47.84 13.10 47.84 11.97L47.84 11.97L47.84 11.97Q47.84 11.63 47.61 11.42L47.61 11.42L47.61 11.42Q47.39 11.20 46.79 10.99L46.79 10.99L45.71 10.63L45.71 10.63Q44.97 10.35 44.63 9.91L44.63 9.91L44.63 9.91Q44.30 9.48 44.30 8.76L44.30 8.76L44.30 8.76Q44.30 7.78 44.93 7.25L44.93 7.25L44.93 7.25Q45.56 6.71 46.82 6.71L46.82 6.71L46.82 6.71Q47.81 6.71 48.79 7.14L48.79 7.14L48.58 8.72L48.05 8.72L47.75 7.70L47.75 7.70Q47.57 7.62 47.30 7.55L47.30 7.55L47.30 7.55Q47.03 7.49 46.79 7.49L46.79 7.49Z"></path></g><!----><!----></svg>